<?xml version="1.0" encoding="UTF-8"?>
<svg id="Layer_2" data-name="Layer 2" xmlns="http://www.w3.org/2000/svg" viewBox="0 0 2364.78 266.79">
  <defs>
    <style>
      .cls-1 {
        fill: #000;
        stroke-width: 0px;
      }

      .cls-2 {
        font-family: Mundial-Regular, Mundial;
      }

      .cls-2, .cls-3 {
        fill: #231f20;
        font-size: 150px;
      }

      .cls-4 {
        letter-spacing: .08em;
      }

      .cls-5 {
        letter-spacing: .1em;
      }

      .cls-6 {
        letter-spacing: .1em;
      }

      .cls-3 {
        font-family: AzonixRegular, Azonix;
        letter-spacing: .2em;
      }

      .cls-7 {
        letter-spacing: .09em;
      }

      .cls-8 {
        letter-spacing: .08em;
      }
    </style>
  </defs>
  <g id="Layer_1-2" data-name="Layer 1">
    <text class="cls-2" transform="translate(0 169.4)"><tspan class="cls-6" x="0" y="0">p</tspan><tspan class="cls-5" x="107.07" y="0">ow</tspan><tspan class="cls-6" x="337.9" y="0">e</tspan><tspan class="cls-4" x="435.15" y="0">r</tspan><tspan class="cls-6" x="503.69" y="0">ed </tspan><tspan class="cls-7" x="757.43" y="0">b</tspan><tspan class="cls-8" x="863.03" y="0">y</tspan></text>
    <text class="cls-3" transform="translate(1331.84 186.1)"><tspan x="0" y="0">radiant</tspan></text>
    <g>
      <path class="cls-1" d="M1066.65,120.16h39.76s.02,0,.02,0h.01s.02.03.02.03l.19.19c.49.49.99.99,1.48,1.48l2.96,2.96c1.96,1.96,3.93,3.93,5.89,5.89,3.9,3.9,7.8,7.8,11.7,11.7,15.24,15.24,30.47,30.47,45.71,45.71,17.14,17.14,34.28,34.28,51.41,51.41,8.27,8.27,16.54,16.54,24.81,24.81.03.03.06.06.1.1.02.02.03.03.05.05,0,0,0,0,.01.01,0,0,0,0,0,0h-82.97c-.09,0-.17,0-.26,0-.08.02-.17.03-.25.05-.17.03-.33.06-.5.09-.33.06-.66.12-.99.18-.67.12-1.33.23-2,.33-2.7.43-5.4.77-8.12,1.03-22.86,2.19-45.89-1.57-66.88-10.89-42.31-18.81-71.84-58.2-78.02-104.09-3.49-25.89.7-52.21,12.04-75.74.02-.04.04-.09.06-.13,0-.01.01-.02.02-.03,0,0,0-.01,0-.02,0,0,0,0,0,0,0,0,0,0,0,0l.09.09.37.37.75.75c.5.5,1,1,1.5,1.5,1,1,2,2,3,3l.75.75c.12.12.25.25.37.37.03.03.06.06.09.09.02.02.03.03.05.05l.02.02s0,0,.01.01c0,0,0,0,0,0,0,0,0,.02-.01.03-.03.08-.07.15-.1.23-.07.15-.13.3-.2.45-.27.6-.53,1.21-.79,1.82-.52,1.22-1.02,2.45-1.5,3.69-.97,2.51-1.86,5.04-2.67,7.61-3.33,10.58-5.23,21.55-5.65,32.64-.86,23.05,4.72,45.88,16.12,65.94,1.36,2.4,2.8,4.75,4.32,7.05,1.5,2.27,3.06,4.48,4.7,6.64,3.33,4.39,6.92,8.52,10.81,12.43,8.04,8.09,17.15,15.03,27.08,20.63,12.83,7.24,26.85,12.13,41.39,14.45,7.13,1.14,14.22,1.64,21.43,1.53,3.5-.05,6.99-.25,10.47-.6.86-.09,1.72-.18,2.57-.28.43-.05.85-.11,1.28-.16.05,0,.11-.01.16-.02.01,0,.03,0,.04,0,0,0,.01,0,.02,0,0,0,0,0,0,0,0,0,.01,0,0,0l-.51-.51-2.05-2.05c-1.36-1.36-2.73-2.73-4.09-4.09-10.91-10.91-21.82-21.82-32.72-32.72-20.15-20.15-40.3-40.3-60.45-60.45-1.26-1.26-2.52-2.52-3.78-3.78-.63-.63-1.26-1.26-1.89-1.89-.33-.33-.65-.67-.95-1.02-1.27-1.48-2.28-3.15-3.01-4.95-1.5-3.7-1.72-7.8-.63-11.64,2.19-7.74,9.26-13.09,17.3-13.09Z"/>
      <path class="cls-1" d="M1226.14,225.44c23.09-20.86,37.5-49.63,40.36-80.62,2.86-30.96-6-61.85-24.83-86.59-18.85-24.75-46.3-41.52-76.93-46.97-7.5-1.34-15.1-1.98-22.72-1.92-3.77.03-7.53.23-11.28.6-3.81.38-7.58.93-11.34,1.66-15.3,2.96-29.9,8.78-43.04,17.14-4.96,3.16-9.64,6.63-14.11,10.45-2.2,1.88-4.32,3.83-6.38,5.86-1.02,1.01-2.02,2.03-3,3.07-.24.26-.49.52-.73.78-.06.07-.12.13-.18.2-.02.02-.03.03-.05.05,0,0,0,0-.01.01h0s0,0,.01,0h104.18c1.44,0,2.87,0,4.31.03,7.83.17,15.63,1.21,23.18,3.38,6.61,1.9,12.92,4.64,18.75,8.31,8.04,5.06,14.82,11.66,20.08,19.57,4.99,7.5,8.45,15.93,10.29,24.73,1.8,8.59,2.07,17.53.72,26.21-1.32,8.45-4.17,16.68-8.66,24.01-4.5,7.35-10.49,13.54-17.82,18.13-3.85,2.41-7.97,4.3-12.28,5.7-2.29.75-4.61,1.34-6.97,1.81-1.23.24-2.46.45-3.69.62-.31.04-.63.08-.94.12-.16.02-.32.04-.48.06-.01,0-.02,0-.03,0,0,0,0,0,0,0,0,0,0,0-.01-.01-.04-.04-.07-.07-.11-.11-1.19-1.19-2.38-2.38-3.58-3.58-4.77-4.77-9.53-9.53-14.3-14.3-4.54-4.54-9.07-9.07-13.61-13.61-2.27-2.27-4.54-4.54-6.81-6.81l-.85-.85s-.04-.04-.05-.05h-.01s0-.01.01-.01h4.54c.59,0,1.19,0,1.78,0,4.98-.15,9.74-1.99,13.53-5.23,3.88-3.32,6.47-7.9,7.32-12.94.8-4.73.02-9.57-2.22-13.81-2.43-4.6-6.42-8.18-11.26-10.1-2.23-.88-4.58-1.39-6.97-1.51-.28-.01-.56-.02-.84-.02-.49,0-.99,0-1.48,0h-70.34c-.37,0-.74,0-1.12,0-2.47-.05-4.88-.33-7.29-.85-5.86-1.25-11.35-3.83-16.06-7.54-1.15-.91-2.24-1.87-3.28-2.89-.4-.39-.79-.79-1.19-1.19-.59-.59-1.18-1.18-1.76-1.76-1.18-1.18-2.35-2.35-3.53-3.53-2.35-2.35-4.7-4.7-7.06-7.06-4.7-4.7-9.41-9.41-14.11-14.11-2.35-2.35-4.7-4.7-7.06-7.06-1.18-1.18-2.35-2.35-3.53-3.53-.04-.04-.07-.07-.11-.11-.02-.02-.04-.04-.06-.06,0,0-.02-.02-.03-.03,0,0,0,0,0,0h28.4s.03,0,.03,0l.04-.05c.06-.07.11-.14.17-.21.23-.28.46-.56.69-.83.46-.55.93-1.11,1.4-1.65.95-1.1,1.91-2.18,2.89-3.25,16.21-17.65,36.88-30.61,59.83-37.51,7.35-2.21,14.88-3.78,22.5-4.7,3.74-.45,7.48-.74,11.25-.87,3.8-.13,7.59-.1,11.39.09,15.56.78,30.85,4.29,45.2,10.35,14.22,6.01,27.28,14.43,38.61,24.91,2.77,2.56,5.42,5.23,7.97,8.02,2.58,2.83,5.03,5.75,7.36,8.79,4.72,6.16,8.9,12.72,12.48,19.61,7.05,13.55,11.71,28.21,13.8,43.34.51,3.71.86,7.42,1.06,11.16.2,3.69.24,7.36.13,11.05-.23,7.51-1.07,14.87-2.55,22.24-3.01,15-8.58,29.37-16.46,42.48-3.92,6.53-8.32,12.61-13.29,18.37-2.43,2.82-4.97,5.53-7.63,8.14-.66.65-1.32,1.28-1.99,1.92-.33.31-.67.63-1.01.94-.17.16-.34.31-.51.47-.02.02-.04.04-.06.06-.01,0-.02.02-.03.03,0,0-.01,0-.02.01,0,0-.01,0-.02,0l-.19-.19c-.13-.13-.25-.25-.38-.38-2.01-2.01-4.02-4.02-6.03-6.03Z"/>
    </g>
  </g>
</svg>