<?xml version="1.0" encoding="UTF-8"?>
<svg id="Layer_2" data-name="Layer 2" xmlns="http://www.w3.org/2000/svg" viewBox="0 0 241.84 241.84">
  <defs>
    <style>
      .cls-1 {
        fill: #000;
        stroke-width: 0px;
      }
    </style>
  </defs>
  <g id="Default">
    <path class="cls-1" d="M196.31,204.36c20.93-18.91,33.99-44.99,36.59-73.08,2.6-28.06-5.44-56.07-22.51-78.49-17.09-22.44-41.97-37.63-69.74-42.58-6.84-1.22-13.65-1.79-20.59-1.74-3.42.03-6.82.21-10.22.54-3.45.34-6.87.84-10.28,1.5-13.86,2.68-27.1,7.96-39.01,15.54-4.5,2.86-8.74,6.01-12.79,9.48-1.99,1.71-3.91,3.48-5.78,5.32-.92.91-1.83,1.84-2.72,2.78-.22.23-.44.47-.66.71-.05.06-.11.12-.16.18l-.04.04h-.01s0,.01,0,.01c0,0,0,0,.01,0h94.44c1.3,0,2.6,0,3.9.02,7.1.15,14.17,1.09,21.01,3.06,6,1.72,11.71,4.2,17,7.53,7.28,4.58,13.43,10.57,18.2,17.74,4.53,6.8,7.66,14.44,9.33,22.42,1.63,7.79,1.87,15.89.65,23.76-1.19,7.66-3.78,15.12-7.85,21.77-4.08,6.66-9.51,12.28-16.16,16.43-3.49,2.18-7.22,3.9-11.13,5.17-2.08.68-4.18,1.22-6.32,1.64-1.11.22-2.23.41-3.35.56-.29.04-.57.08-.86.11-.14.02-.29.04-.43.05,0,0-.02,0-.03,0h0s0-.01-.01-.02c-.03-.03-.07-.07-.1-.1-1.08-1.08-2.16-2.16-3.24-3.24-4.32-4.32-8.64-8.64-12.96-12.96-4.11-4.11-8.22-8.23-12.34-12.34-2.06-2.06-4.11-4.11-6.17-6.17l-.77-.77-.05-.05h-.01s0-.01.01-.01h4.12c.54,0,1.08,0,1.62,0,9.42-.28,17.33-7.17,18.9-16.47.72-4.28.02-8.67-2.01-12.52-2.2-4.17-5.82-7.42-10.2-9.15-2.02-.8-4.15-1.26-6.32-1.37-.25-.01-.51-.02-.76-.02-.45,0-.89,0-1.34,0h-63.77c-.34,0-.67,0-1.01,0-2.24-.05-4.42-.3-6.61-.77-5.31-1.13-10.29-3.47-14.56-6.83-1.04-.82-2.03-1.69-2.97-2.62-.9-.89-1.78-1.78-2.68-2.68-1.07-1.07-2.13-2.13-3.2-3.2l-6.4-6.4c-4.26-4.26-8.53-8.53-12.79-12.79-2.13-2.13-4.26-4.26-6.4-6.4-1.07-1.07-2.13-2.13-3.2-3.2l-.1-.1s-.03-.03-.05-.05c0,0-.02-.02-.02-.02,0,0,0,0,0,0h25.75s.03,0,.03,0c.01-.02.03-.03.04-.05.05-.06.1-.13.15-.19.21-.25.41-.5.62-.76.42-.5.84-1,1.27-1.5.86-1,1.73-1.98,2.62-2.95,14.7-16,33.43-27.75,54.24-34,6.7-2.01,13.45-3.42,20.39-4.26,3.39-.41,6.78-.67,10.2-.79,3.44-.12,6.88-.09,10.32.08,14.1.71,27.97,3.89,40.97,9.38,12.89,5.45,24.73,13.08,35,22.58,2.51,2.32,4.92,4.74,7.22,7.27,2.34,2.56,4.56,5.21,6.67,7.97,4.31,5.62,8.05,11.5,11.31,17.78,6.39,12.28,10.62,25.57,12.51,39.29.46,3.36.78,6.73.96,10.11.18,3.34.21,6.68.11,10.02-.2,6.81-.97,13.48-2.31,20.16-2.73,13.59-7.77,26.62-14.92,38.5-3.56,5.92-7.54,11.43-12.05,16.66-2.21,2.56-4.51,5.01-6.92,7.38-.6.59-1.2,1.16-1.81,1.74-.3.29-.61.57-.91.85-.15.14-.31.28-.46.42l-.06.05s-.02.02-.03.03c0,0,0,0-.01.01,0,0-.01,0-.02,0-.06-.06-.11-.11-.17-.17-.11-.11-.23-.23-.34-.34-1.82-1.82-3.65-3.65-5.47-5.47Z"/>
    <path class="cls-1" d="M51.73,108.92h36.04s.01,0,.02,0c0,0,0,0,.01.01l.02.02c.06.06.11.11.17.17.45.45.89.89,1.34,1.34l2.68,2.68c1.78,1.78,3.56,3.56,5.34,5.34,3.53,3.53,7.07,7.07,10.6,10.6,13.81,13.81,27.62,27.62,41.44,41.44,15.53,15.54,31.07,31.07,46.6,46.61,7.5,7.5,14.99,15,22.49,22.49l.09.09.04.04h.01s0,.01,0,.01h-75.21c-.08,0-.16,0-.24,0-.07.01-.15.03-.22.04-.15.03-.3.06-.45.08-.3.05-.6.11-.9.16-.6.1-1.21.2-1.81.3-2.45.39-4.9.7-7.36.93-20.72,1.98-41.6-1.42-60.62-9.88C33.45,214.36,6.68,178.65,1.08,137.06c-3.16-23.47.63-47.33,10.92-68.66.02-.04.04-.08.06-.12,0,0,0-.02.01-.03,0,0,0,0,0-.01,0,0,0,0,0,0,0,0,0,0,0,0,.03.03.06.06.08.08.11.11.23.23.34.34l.68.68c.45.45.9.91,1.36,1.36.91.91,1.81,1.81,2.72,2.72.23.23.45.45.68.68l.34.34s.06.06.08.08l.04.04s.01.01.02.02c0,0,0,0,.01.01,0,0,0,0,0,0,0,0,0,.02-.01.03-.03.07-.06.14-.09.2-.06.14-.12.27-.18.41-.24.55-.48,1.1-.72,1.65-.47,1.11-.93,2.22-1.36,3.35-.88,2.27-1.69,4.57-2.42,6.9-3.02,9.59-4.74,19.54-5.12,29.59-.78,20.9,4.28,41.59,14.61,59.77,2.46,4.33,5.18,8.44,8.18,12.41,3.02,3.98,6.27,7.72,9.8,11.27,7.28,7.33,15.54,13.63,24.54,18.7,11.63,6.56,24.34,10.99,37.52,13.1,6.46,1.03,12.89,1.49,19.43,1.39,3.17-.05,6.33-.23,9.49-.55.78-.08,1.56-.16,2.33-.26.39-.05.77-.1,1.16-.15.05,0,.1-.01.14-.02.01,0,.02,0,.04,0,0,0,.01,0,.02,0h0s.01,0,0,0l-.46-.46c-.62-.62-1.24-1.24-1.85-1.85-1.24-1.24-2.47-2.47-3.71-3.71-9.89-9.89-19.78-19.78-29.66-29.66-18.26-18.27-36.53-36.53-54.79-54.8-1.14-1.14-2.28-2.28-3.42-3.42l-1.71-1.71c-.3-.3-.59-.61-.86-.93-1.15-1.34-2.07-2.86-2.73-4.49-1.36-3.36-1.56-7.07-.57-10.55,1.99-7.02,8.39-11.86,15.69-11.86Z"/>
  </g>
</svg>