<?xml version="1.0" encoding="UTF-8"?>
<svg id="Layer_2" data-name="Layer 2" xmlns="http://www.w3.org/2000/svg" viewBox="0 0 248.89 244.74">
  <defs>
    <style>
      .cls-1 {
        fill: #000;
        stroke-width: 0px;
      }
    </style>
  </defs>
  <g id="Default">
    <rect class="cls-1" x="119.93" y="211.97" width="5.84" height="32.72"/>
    <polygon class="cls-1" points="166.67 244.69 160.13 244.69 157.14 238.85 149.99 224.82 142.84 238.85 139.84 244.69 133.3 244.69 136.29 238.85 149.99 211.97 163.68 238.85 166.67 244.69"/>
    <polygon class="cls-1" points="206.87 212.02 206.87 244.73 201.03 240.25 179.99 224.03 179.99 244.73 174.15 244.73 174.15 212.11 179.99 216.6 201.03 232.82 201.03 211.97 206.87 212.02"/>
    <polygon class="cls-1" points="248.89 212.02 248.89 217.86 235.47 217.86 235.47 244.73 229.63 244.73 229.63 217.86 216.22 217.86 216.22 212.02 248.89 212.02"/>
    <path class="cls-1" d="M94.18,212.02c9.02,0,16.36,7.29,16.36,16.31,0,4.02-1.45,7.71-3.88,10.56-.28.33-.61.65-.93.98-2.94,2.99-7.01,4.81-11.5,4.81h-16.36v-32.72c5.44.02,10.88.03,16.31.05ZM83.66,238.89h10.52c5.8,0,10.52-4.72,10.52-10.52s-4.72-10.52-10.52-10.52h-10.52v21.03Z"/>
    <polygon class="cls-1" points="70.39 244.69 63.85 244.69 60.86 238.85 53.7 224.82 46.55 238.85 43.56 244.69 37.02 244.69 40.01 238.85 53.7 211.97 67.4 238.85 70.39 244.69"/>
    <path class="cls-1" d="M26.46,238.89c1,1.95,1.99,3.9,2.99,5.84h-6.54c-1-1.95-1.99-3.9-2.99-5.84-1.04-2.04-2.09-4.08-3.13-6.12-.05-.09-.09-.19-.14-.28-1.03-1.68-2.85-2.8-4.95-2.8h-5.84v15.05H0v-32.72h20.66c2.43,0,4.63.98,6.22,2.57,1.59,1.64,2.57,3.83,2.57,6.26,0,3.55-2.1,6.64-5.14,8.04-.79.37-1.64.61-2.52.7,1.56,3.1,3.12,6.2,4.67,9.3ZM20.66,223.84c.42,0,.84-.09,1.22-.28,1.07-.47,1.78-1.54,1.78-2.71,0-1.07-.56-1.82-.89-2.15-.37-.37-1.07-.84-2.1-.84H5.84v6.03c4.94-.02,9.88-.03,14.82-.05Z"/>
    <path class="cls-1" d="M73.49,80.28h26.57s.01,0,.02,0c0,0,0,0,0,0,0,0,.01.01.02.02.04.04.08.08.12.12l.99.99c.66.66,1.32,1.32,1.97,1.97l3.94,3.94c2.61,2.61,5.21,5.21,7.82,7.82,10.18,10.18,20.36,20.36,30.54,30.54l34.35,34.35c5.53,5.53,11.05,11.05,16.58,16.58.02.02.04.04.06.06.01.01.02.02.03.03,0,0,0,0,0,0,0,0,0,0,0,0h-55.44c-.06,0-.12,0-.17,0-.06.01-.11.02-.17.03-.11.02-.22.04-.33.06-.22.04-.44.08-.66.12-.44.08-.89.15-1.34.22-1.8.28-3.61.51-5.43.69-15.28,1.46-30.66-1.05-44.68-7.28-28.27-12.57-48-38.89-52.13-69.55-2.33-17.3.47-34.88,8.05-50.6.01-.03.03-.06.04-.09,0,0,0-.01.01-.02,0,0,0,0,0-.01,0,0,0,0,0,0,0,0,0,0,0,0,.02.02.04.04.06.06.08.08.17.17.25.25.17.17.33.33.5.5.33.33.67.67,1,1,.67.67,1.33,1.33,2,2l.5.5.25.25.06.06.03.03.02.02s0,0,0,0c0,0,0,0,0,0,0,0,0,.01,0,.02-.02.05-.05.1-.07.15-.05.1-.09.2-.13.3-.18.4-.36.81-.53,1.21-.35.82-.68,1.64-1,2.47-.65,1.68-1.25,3.37-1.79,5.09-2.23,7.07-3.5,14.4-3.77,21.81-.58,15.4,3.15,30.66,10.77,44.06.91,1.6,1.87,3.17,2.89,4.71,1,1.51,2.05,2.99,3.14,4.44,2.23,2.93,4.62,5.69,7.22,8.31,5.37,5.41,11.46,10.04,18.09,13.79,8.57,4.83,17.94,8.1,27.66,9.65,4.76.76,9.5,1.1,14.32,1.03,2.34-.04,4.67-.17,7-.4.57-.06,1.15-.12,1.72-.19.28-.03.57-.07.85-.11h.11s.02-.02.03-.02c0,0,0,0,.01,0,0,0,0,0,0,0,0,0,0,0,0,0-.11-.11-.23-.23-.34-.34-.46-.46-.91-.91-1.37-1.37-.91-.91-1.82-1.82-2.73-2.73-7.29-7.29-14.58-14.58-21.86-21.87l-40.39-40.39c-.84-.84-1.68-1.68-2.52-2.52-.42-.42-.84-.84-1.26-1.26-.22-.22-.43-.45-.63-.68-.85-.99-1.52-2.11-2.01-3.31-1-2.47-1.15-5.21-.42-7.78,1.46-5.17,6.19-8.74,11.56-8.74Z"/>
    <path class="cls-1" d="M180.06,150.63c15.43-13.94,25.05-33.16,26.97-53.87,1.91-20.68-4.01-41.33-16.59-57.85-12.59-16.54-30.94-27.74-51.4-31.39-5.01-.89-10.09-1.32-15.18-1.28-5.07.04-10.13.54-15.12,1.51-10.22,1.98-19.98,5.86-28.76,11.45-3.32,2.11-6.44,4.43-9.43,6.99-1.47,1.26-2.89,2.56-4.26,3.92-.68.67-1.35,1.35-2.01,2.05-.16.17-.33.35-.49.52-.04.04-.08.09-.12.13l-.03.03s0,0,0,0c0,0,0,0,0,0,0,0,0,0,0,0h69.61c.96,0,1.92,0,2.88.02,5.23.11,10.44.81,15.49,2.26,4.42,1.27,8.63,3.1,12.53,5.55,5.37,3.38,9.9,7.79,13.42,13.07,3.34,5.01,5.64,10.64,6.88,16.52,1.2,5.74,1.38,11.71.48,17.51-.88,5.65-2.79,11.15-5.78,16.04-3.01,4.91-7.01,9.05-11.91,12.11-2.57,1.61-5.32,2.87-8.21,3.81-1.53.5-3.08.9-4.66,1.21-.82.16-1.64.3-2.47.41-.21.03-.42.06-.63.08-.11.01-.21.03-.32.04,0,0-.01,0-.02,0,0,0,0,0,0,0h0s-.05-.06-.07-.08c-.8-.8-1.59-1.59-2.39-2.39-3.19-3.19-6.37-6.37-9.56-9.56-3.03-3.03-6.06-6.06-9.09-9.09-1.52-1.52-3.03-3.03-4.55-4.55l-.57-.57s-.02-.02-.04-.04c0,0,0,0,0,0,0,0,0,0,0,0h3.03c.4,0,.79,0,1.19,0,3.33-.1,6.51-1.33,9.04-3.49,2.59-2.22,4.32-5.28,4.89-8.64.53-3.16.01-6.39-1.48-9.23-1.62-3.07-4.29-5.47-7.52-6.75-1.49-.59-3.06-.93-4.66-1.01-.19,0-.38-.01-.56-.02-.33,0-.66,0-.99,0h-47c-.25,0-.5,0-.75,0-1.65-.04-3.26-.22-4.87-.57-3.92-.83-7.59-2.56-10.73-5.04-.77-.6-1.49-1.25-2.19-1.93-.66-.65-1.32-1.31-1.97-1.97-.79-.79-1.57-1.57-2.36-2.36-1.57-1.57-3.14-3.14-4.71-4.71-3.14-3.14-6.29-6.29-9.43-9.43-1.57-1.57-3.14-3.14-4.71-4.71-.79-.79-1.57-1.57-2.36-2.36-.02-.02-.05-.05-.07-.07-.01-.01-.02-.02-.04-.04,0,0-.01-.01-.02-.02,0,0,0,0,0,0h18.98s.02,0,.02,0c0-.01.02-.02.03-.03.04-.05.08-.09.11-.14.15-.19.31-.37.46-.56.31-.37.62-.74.93-1.1.63-.73,1.28-1.46,1.93-2.17,10.83-11.79,24.64-20.45,39.98-25.06,4.94-1.48,9.91-2.52,15.03-3.14,2.5-.3,5-.49,7.52-.58,2.54-.09,5.07-.07,7.61.06,10.39.52,20.61,2.86,30.2,6.92,9.5,4.01,18.23,9.64,25.8,16.64,1.85,1.71,3.62,3.49,5.32,5.36,1.72,1.89,3.36,3.84,4.92,5.87,3.17,4.14,5.93,8.47,8.34,13.1,4.71,9.05,7.83,18.85,9.22,28.96.34,2.48.58,4.96.71,7.45.13,2.46.16,4.92.08,7.39-.15,5.02-.71,9.94-1.7,14.86-2.01,10.02-5.73,19.62-10.99,28.38-2.62,4.36-5.56,8.42-8.88,12.28-1.63,1.89-3.32,3.7-5.1,5.44-.44.43-.88.86-1.33,1.28-.22.21-.45.42-.67.63-.11.1-.23.21-.34.31-.01.01-.03.03-.04.04,0,0-.01.01-.02.02,0,0,0,0-.01,0,0,0,0,0-.01,0-.04-.04-.08-.08-.13-.13-.08-.08-.17-.17-.25-.25-1.34-1.34-2.69-2.69-4.03-4.03Z"/>
  </g>
</svg>