<?xml version="1.0" encoding="UTF-8"?>
<svg id="Layer_2" data-name="Layer 2" xmlns="http://www.w3.org/2000/svg" viewBox="0 0 513.71 67.63">
  <defs>
    <style>
      .cls-1 {
        fill: #000;
        stroke-width: 0px;
      }
    </style>
  </defs>
  <g id="Default">
    <path class="cls-1" d="M194.39.1c18.62,0,33.77,15.05,33.77,33.67,0,8.3-2.99,15.92-8.01,21.8-.58.68-1.25,1.35-1.93,2.03-6.08,6.17-14.47,9.94-23.73,9.94h-33.77V0c11.22.03,22.45.06,33.67.1ZM172.68,55.57h21.71c11.96,0,21.71-9.74,21.71-21.71s-9.74-21.71-21.71-21.71h-21.71v43.41Z"/>
    <polygon class="cls-1" points="145.29 67.53 131.78 67.53 125.61 55.47 110.85 26.53 96.09 55.47 89.91 67.53 76.41 67.53 82.58 55.47 110.85 0 139.12 55.47 145.29 67.53"/>
    <path class="cls-1" d="M54.6,55.57c2.06,4.02,4.12,8.04,6.17,12.06h-13.51c-2.06-4.02-4.12-8.04-6.17-12.06-2.15-4.21-4.31-8.43-6.46-12.64-.1-.19-.19-.39-.29-.58-2.12-3.47-5.88-5.79-10.23-5.79h-12.06v31.07H0V.1h42.64c5.02,0,9.55,2.03,12.83,5.31,3.28,3.38,5.31,7.91,5.31,12.93,0,7.33-4.34,13.7-10.61,16.59-1.64.77-3.38,1.25-5.21,1.45,3.22,6.4,6.43,12.8,9.65,19.2ZM42.64,24.51c.87,0,1.74-.19,2.51-.58,2.22-.96,3.67-3.18,3.67-5.6,0-2.22-1.16-3.76-1.83-4.44-.77-.77-2.22-1.74-4.34-1.74H12.06v12.45l30.58-.1Z"/>
    <polygon class="cls-1" points="344.02 67.53 330.51 67.53 324.34 55.47 309.58 26.53 294.82 55.47 288.64 67.53 275.14 67.53 281.31 55.47 309.58 0 337.85 55.47 344.02 67.53"/>
    <polygon class="cls-1" points="426.99 .1 426.99 67.63 414.93 58.37 371.51 24.89 371.51 67.63 359.45 67.63 359.45 .29 371.51 9.55 414.93 43.03 414.93 0 426.99 .1"/>
    <polygon class="cls-1" points="513.71 .1 513.71 12.16 486.03 12.16 486.03 67.63 473.97 67.63 473.97 12.16 446.28 12.16 446.28 .1 513.71 .1"/>
    <rect class="cls-1" x="247.55" width="12.06" height="67.53"/>
  </g>
</svg>